<svg width="21" height="21" viewBox="0 0 21 21" fill="none" xmlns="http://www.w3.org/2000/svg">
<path d="M19.5378 4.27842L14.185 9.63189C13.7945 10.0224 13.7945 10.6555 14.185 11.046L19.5378 16.3992C20.4392 17.301 20.4392 18.7616 19.5378 19.6634C19.0875 20.1138 18.497 20.3391 17.9068 20.3391C17.3157 20.3391 16.7251 20.1141 16.2751 19.6634L10.921 14.3095C10.5305 13.919 9.89732 13.919 9.5068 14.3095L4.15315 19.6633C3.70284 20.1137 3.11231 20.3391 2.52161 20.3391C1.93109 20.3391 1.34096 20.114 0.890245 19.6633C-0.0111327 18.762 -0.0111327 17.3013 0.890245 16.3992L6.24294 11.046C6.63342 10.6555 6.63342 10.0224 6.24293 9.63184L0.8899 4.27842C-0.0114772 3.37704 -0.0114772 1.91602 0.8899 1.01463C1.79111 0.113938 3.25126 0.113938 4.15281 1.01463L9.50673 6.36814C9.89726 6.75863 10.5304 6.75862 10.9209 6.36811L16.2744 1.01463C17.1761 0.113938 18.6365 0.113938 19.5375 1.01463C20.4392 1.91602 20.4392 3.37704 19.5378 4.27842Z" fill="white"/>
</svg>
