<svg xmlns="http://www.w3.org/2000/svg" xmlns:xlink="http://www.w3.org/1999/xlink" version="1.1" width="240" height="234" style="" xml:space="preserve"><rect id="backgroundrect" width="100%" height="100%" x="0" y="0" fill="none" stroke="none"/>



<g class="currentLayer" style=""><title>Layer 1</title><path style="" d="M83.3573310838877,111.11054093613845 l45.32686899127731,87.09234113323996 c0.8094083748442372,1.2950533997507803 0.32376334993769545,2.5901067995015605 -0.9712900498130853,2.5901067995015605 h-28.167411444579464 c-1.7806984246573232,0 -2.5901067995015605,-0.4856450249065431 -3.3995151743457983,-2.1044617745950185 c-10.360427198006242,-21.36838109588787 -20.88273607098133,-42.73676219177574 -31.72880829389412,-65.72396003735209 H64.09341176259483 c-9.712900498130852,21.69214444582557 -20.397091046074788,44.51746061643307 -30.75751824408103,65.88584171232095 c-0.8094083748442372,1.2950533997507803 -1.618816749688475,1.7806984246573232 -2.9138701494392554,1.7806984246573232 H3.7115469992147094 c-1.618816749688475,0 -1.7806984246573232,-1.2950533997507803 -0.9712900498130853,-2.2663434495638652 l44.355578941464216,-84.50223433373841 L4.197192024121245,28.38900502705738 c-0.9712900498130853,-1.2950533997507803 0,-2.2663434495638652 0.9712900498130853,-2.2663434495638652 h27.84364809464177 c1.618816749688475,0 2.2663434495638652,0.32376334993769545 2.9138701494392554,1.7806984246573232 c10.198545523037394,21.36838109588787 20.558972721043638,43.38428889165114 30.271873219174488,64.91455166250785 h0.32376334993769545 c9.389137148193157,-21.36838109588787 19.749564346199396,-43.54617056661998 29.78622819426794,-64.75266998753901 c0.8094083748442372,-1.2950533997507803 1.2950533997507803,-2.1044617745950185 2.9138701494392554,-2.1044617745950185 h26.062949669984455 c1.2950533997507803,0 1.7806984246573232,0.9712900498130853 0.9712900498130853,2.2663434495638652 L83.3573310838877,111.11054093613845 zM136.61640214863854,137.4972539560606 c0,-37.71843026774147 25.091659620171367,-67.18089511207172 64.91455166250785,-67.18089511207172 c3.3995151743457983,0 5.180213599003121,0 8.41784709838007,0.32376334993769545 V27.741478327181987 c0,-0.9712900498130853 0.8094083748442372,-1.618816749688475 1.618816749688475,-1.618816749688475 h25.57730464507791 c1.2950533997507803,0 1.618816749688475,0.4856450249065431 1.618816749688475,1.2950533997507803 v148.60737762140204 c0,4.370805224158883 0,9.874782173099698 0.8094083748442372,15.86440414694706 c0,0.9712900498130853 -0.32376334993769545,1.2950533997507803 -1.2950533997507803,1.7806984246573232 c-13.598060697383193,6.4752669987539 -27.84364809464177,9.389137148193157 -41.44170879202497,9.389137148193157 C161.7080617688099,203.22121399341268 136.61640214863854,181.5290695475871 136.61640214863854,137.4972539560606 zM209.94880090952643,96.05554516403562 c-2.2663434495638652,-0.9712900498130853 -5.5039769489408155,-1.618816749688475 -9.389137148193157,-1.618816749688475 c-20.397091046074788,0 -34.642678443333374,15.702522471978208 -34.642678443333374,41.76547214196266 c0,29.78622819426794 14.569350747196276,41.76547214196266 32.86198001867604,41.76547214196266 c3.885160199252341,0 8.094083748442376,-0.4856450249065431 11.169835572850479,-1.7806984246573232 V96.05554516403562 z" id="svg_3" class="selected" fill="#d6d6d6" fill-opacity="1"/></g></svg>